# xmcd
#
# Track frame offsets:
# 150
# 10137
# 22892
# 33782
# 48660
# 62502
# 76782
# 89322
# 101762
# 114352
#
# Disc length: 1684 seconds
#
#
# Revision: 0
# Processed by: cddbd v1.5.1PL0 Copyright (c) Steve Scherf et al.
# Submitted via: FreeRIP 2.51 
#
DISCID=6806920a
DTITLE=Muddy Waters - Walking Through The Park
DYEAR=1900
DGENRE=Blues
TTITLE0=Mean Red Spider
TTITLE1=Trainfare Blues
TTITLE2=She's Alright
TTITLE3=Baby Please Don't Go
TTITLE4=I'm Ready
TTITLE5=One More Mile
TTITLE6=So Glad I'm Living
TTITLE7=I Can't Be Satisfied
TTITLE8=Walking Through The Park
TTITLE9=The Stuff You Gotta Watch
EXTD=
EXTT0=
EXTT1=
EXTT2=
EXTT3=
EXTT4=
EXTT5=
EXTT6=
EXTT7=
EXTT8=
EXTT9=
PLAYORDER=
